<svg xmlns="http://www.w3.org/2000/svg" viewBox="0 0 112.32 105.48"><defs><style>.cls-1{fill:#fefefe;}.cls-2{fill:#2c2b64;}.cls-3{fill:#fcfcfc;}</style></defs><g id="Camada_2" data-name="Camada 2"><g id="Camada_1-2" data-name="Camada 1"><path class="cls-1" d="M56.16,0q27.71,0,55.42,0c.62,0,.74.12.74.74q0,52,0,104c0,.62-.12.74-.74.74q-55.42,0-110.84,0c-.62,0-.74-.12-.74-.74q0-52,0-104C0,.12.12,0,.74,0Q28.45,0,56.16,0ZM15.92,52.56A40.33,40.33,0,1,0,56.19,12.51,40.4,40.4,0,0,0,15.92,52.56Z"/><path class="cls-2" d="M15.92,52.56A40.33,40.33,0,1,1,56.51,93.14,40.34,40.34,0,0,1,15.92,52.56ZM70.37,40.44a24.39,24.39,0,0,0,1.08,4.18c.69,2.8.76,5.51-1.06,8a11.46,11.46,0,0,1-4.58,3.5,28.26,28.26,0,0,1-17,2.06c-2.44-.41-4.87-.88-7.3-1.29-1-.17-1.1,0-.74.88,1,2.58,2,5.16,3.06,7.72,1.53,3.74,3,7.5,4.77,11.16.21.44.41.73,1,.62a49.3,49.3,0,0,0,15.57-5.54,28.18,28.18,0,0,0,10.62-9.8,14.34,14.34,0,0,0,2.08-9.52,18.38,18.38,0,0,0-6.22-11.09A2.87,2.87,0,0,0,70.37,40.44ZM55.83,57.82a2.69,2.69,0,0,0-.07-1.44c-.48-1.31-.95-2.63-1.42-3.94-1.16-3.26-2.24-6.54-2.08-10.08.19-4.28,2.67-6.78,6.94-7.17a36.66,36.66,0,0,1,6.79.17c.71.06,1.43,0,2.15,0a.66.66,0,0,0,.67-.37c.13-.34-.2-.47-.41-.6a15.62,15.62,0,0,0-1.88-1,29.07,29.07,0,0,0-16.06-2.31c-5.35.84-8.93,3.77-10.46,9-1.45,5-.78,9.92.44,14.84.1.42.38.38.67.43Zm3.93-18.64a6.84,6.84,0,0,0-3.24,1.14A4.19,4.19,0,0,0,54.61,45a9,9,0,0,0,6.56,6.69,7.16,7.16,0,0,0,6.1-.8,3.93,3.93,0,0,0,1.92-3.53C69.16,43.46,64.57,39.19,59.76,39.18Z"/><path class="cls-3" d="M70.37,40.44a2.87,2.87,0,0,1,1.32.84,18.38,18.38,0,0,1,6.22,11.09,14.34,14.34,0,0,1-2.08,9.52,28.18,28.18,0,0,1-10.62,9.8,49.3,49.3,0,0,1-15.57,5.54c-.59.11-.79-.18-1-.62C46.9,73,45.4,69.19,43.87,65.45c-1-2.56-2-5.14-3.06-7.72-.36-.91-.25-1,.74-.88,2.43.41,4.86.88,7.3,1.29a28.26,28.26,0,0,0,17-2.06,11.46,11.46,0,0,0,4.58-3.5c1.82-2.45,1.75-5.16,1.06-8A24.39,24.39,0,0,1,70.37,40.44Z"/><path class="cls-3" d="M55.83,57.82,41.11,55.37c-.29,0-.57,0-.67-.43C39.22,50,38.55,45.08,40,40.1c1.53-5.24,5.11-8.17,10.46-9A29.07,29.07,0,0,1,66.52,33.4a15.62,15.62,0,0,1,1.88,1c.21.13.54.26.41.6a.66.66,0,0,1-.67.37c-.72,0-1.44,0-2.15,0a36.66,36.66,0,0,0-6.79-.17c-4.27.39-6.75,2.89-6.94,7.17-.16,3.54.92,6.82,2.08,10.08.47,1.31.94,2.63,1.42,3.94A2.69,2.69,0,0,1,55.83,57.82Z"/><path class="cls-3" d="M59.76,39.18c4.81,0,9.4,4.28,9.43,8.22a3.93,3.93,0,0,1-1.92,3.53,7.16,7.16,0,0,1-6.1.8A9,9,0,0,1,54.61,45a4.19,4.19,0,0,1,1.91-4.72A6.84,6.84,0,0,1,59.76,39.18Z"/></g></g></svg>
